<?xml version="1.0" encoding="UTF-8" standalone="no"?>
<!-- Created with Inkscape (http://www.inkscape.org/) -->

<svg
   xmlns:dc="http://purl.org/dc/elements/1.1/"
   xmlns:cc="http://creativecommons.org/ns#"
   xmlns:rdf="http://www.w3.org/1999/02/22-rdf-syntax-ns#"
   xmlns:svg="http://www.w3.org/2000/svg"
   xmlns="http://www.w3.org/2000/svg"
   xmlns:sodipodi="http://sodipodi.sourceforge.net/DTD/sodipodi-0.dtd"
   xmlns:inkscape="http://www.inkscape.org/namespaces/inkscape"
   width="77.210587mm"
   height="45.068096mm"
   viewBox="0 0 273.58082 159.6901"
   id="svg3350"
   version="1.1"
   inkscape:version="0.91 r13725"
   sodipodi:docname="nuage1.svg">
  <defs
     id="defs3352" />
  <sodipodi:namedview
     id="base"
     pagecolor="#ffffff"
     bordercolor="#666666"
     borderopacity="1.0"
     inkscape:pageopacity="0.0"
     inkscape:pageshadow="2"
     inkscape:zoom="0.35"
     inkscape:cx="303.21898"
     inkscape:cy="-174.44066"
     inkscape:document-units="px"
     inkscape:current-layer="layer1"
     showgrid="false"
     fit-margin-top="0"
     fit-margin-left="0"
     fit-margin-right="0"
     fit-margin-bottom="0"
     inkscape:window-width="1440"
     inkscape:window-height="838"
     inkscape:window-x="1432"
     inkscape:window-y="-8"
     inkscape:window-maximized="1" />
  <metadata
     id="metadata3355">
    <rdf:RDF>
      <cc:Work
         rdf:about="">
        <dc:format>image/svg+xml</dc:format>
        <dc:type
           rdf:resource="http://purl.org/dc/dcmitype/StillImage" />
        <dc:title></dc:title>
      </cc:Work>
    </rdf:RDF>
  </metadata>
  <g
     inkscape:label="Calque 1"
     inkscape:groupmode="layer"
     id="layer1"
     transform="translate(-71.781016,-198.23144)">
    <path
       style="fill:none;fill-rule:evenodd;stroke:#000000;stroke-width:1px;stroke-linecap:butt;stroke-linejoin:miter;stroke-opacity:1"
       d="m 230.23259,237.41749 18.57143,-12.85714 -4.28571,-11.42857 -29.28572,-14.28572 -19.28571,21.42857 -12.14286,-5.71428 -11.42857,14.28571 -13.57143,1.42857 -25,-12.85714 -32.85714,11.42857 5.71428,28.57143 12.14286,15 -35.000001,2.14286 -11.428571,23.57143 15,17.14285 21.428572,8.57143 c 0,0 -11.428572,12.85714 -2.85714,12.85714 8.57143,0 81.42857,-8.57142 81.42857,-8.57142 l -3.57143,29.28571 100,-0.71429 61.42857,-14.28571 -50.71428,-13.57143 -5,-32.85714 -13.57143,-12.85714 -30.71429,11.42857 0,-29.28572 -9.28571,-10.71428 -5,-12.14286 z"
       id="path3336"
       inkscape:connector-curvature="0"
       sodipodi:nodetypes="ccccccccccccccccscccccccccccc" />
    <path
       style="fill:none"
       d="m 184.98646,354.38166 c 0.79449,-5.69656 3.15973,-25.2966 3.16097,-26.19408 10e-4,-0.7871 -0.84435,-0.89079 -4.10577,-0.50357 -13.6852,1.62482 -62.01124,6.88453 -69.71342,7.58747 -6.2851,0.57361 -9.40913,0.60617 -9.91199,0.10332 -1.0813,-1.0813 -0.18187,-3.75138 2.65088,-7.86947 1.38063,-2.00709 2.51025,-3.78327 2.51025,-3.94706 0,-0.16379 -4.90229,-2.26326 -10.893972,-4.66548 l -10.893967,-4.36768 -6.784605,-7.83807 c -3.731532,-4.31094 -6.882543,-8.29528 -7.002246,-8.85408 -0.119703,-0.55881 2.212666,-5.86853 5.183042,-11.79938 4.53933,-9.06354 5.656292,-10.78577 7.003355,-10.79842 3.122895,-0.0293 33.590743,-2.09217 33.778643,-2.28702 0.10498,-0.10887 -1.89001,-2.76936 -4.43331,-5.91222 -2.5433,-3.14286 -5.40896,-6.71254 -6.36814,-7.93263 -1.3719,-1.74508 -2.33331,-5.14774 -4.50639,-15.94926 -1.90999,-9.49378 -2.51424,-13.82176 -1.95814,-14.02531 0.44236,-0.16192 7.62905,-2.65737 15.97041,-5.54545 l 15.16611,-5.25106 12.29808,6.39437 12.29807,6.39437 5.03581,-0.46674 c 9.6011,-0.88985 9.30842,-0.74342 14.32325,-7.16563 6.531,-8.36391 5.75676,-8.04196 12.19078,-5.06926 3.02978,1.39985 5.73989,2.54517 6.02247,2.54517 0.28258,0 4.63015,-4.58035 9.66128,-10.17857 5.03112,-5.59821 9.49572,-10.25456 9.92134,-10.34743 0.42561,-0.0929 7.02275,2.96069 14.66031,6.78571 l 13.88647,6.95458 1.64925,4.55124 c 0.90708,2.50319 1.64924,4.80979 1.64924,5.12579 0,0.316 -4.05239,3.39727 -9.00531,6.84726 l -9.0053,6.27272 0.41245,3.00917 c 0.82557,6.02316 5.04206,14.58577 10.03054,20.36945 l 4.71048,5.46135 0,14.71723 c 0,8.25827 0.28247,14.71722 0.64363,14.71722 0.35399,0 7.37294,-2.51007 15.59766,-5.57795 l 14.95402,-5.57793 6.47249,6.20128 6.47248,6.20128 2.51464,16.2629 c 1.38305,8.94459 2.83662,16.46189 3.23015,16.7051 0.39352,0.24321 10.86608,3.15102 23.27235,6.46181 12.40628,3.31078 22.55568,6.20048 22.55423,6.42155 -0.001,0.22108 -12.93895,3.35966 -28.75,6.97462 l -28.74737,6.57267 -49.06618,0.41593 -49.06618,0.41594 0.32716,-2.34575 z"
       id="path3338"
       inkscape:connector-curvature="0" />
  </g>
</svg>
